<svg xmlns="http://www.w3.org/2000/svg" version="1.1" xmlns:xlink="http://www.w3.org/1999/xlink" xmlns:svgjs="http://svgjs.dev/svgjs" width="1500" height="193" viewBox="0 0 1500 193"><g transform="matrix(1,0,0,1,-0.9090909090909918,-0.8525001020930887)"><svg viewBox="0 0 396 51" data-background-color="#ffffff" preserveAspectRatio="xMidYMid meet" height="193" width="1500" xmlns="http://www.w3.org/2000/svg" xmlns:xlink="http://www.w3.org/1999/xlink"><g id="tight-bounds" transform="matrix(1,0,0,1,0.2400000000000091,0.2252720477033563)"><svg viewBox="0 0 395.52 50.549455904593316" height="50.549455904593316" width="395.52"><g><svg viewBox="0 0 543.9814715949075 69.52358265398098" height="50.549455904593316" width="395.52"><g><rect width="4.536692063728874" height="50.558032248372555" x="132.04862229628628" y="9.482775202804213" fill="#1ebbd7" opacity="1" stroke-width="0" stroke="transparent" fill-opacity="1" class="rect-qz-0" data-fill-palette-color="primary" rx="1%" id="qz-0" data-palette-color="#1ebbd7"></rect></g><g transform="matrix(1,0,0,1,148.4614715949075,9.608541452178272)"><svg viewBox="0 0 395.52 50.306499749624436" height="50.306499749624436" width="395.52"><g id="textblocktransform"><svg viewBox="0 0 395.52 50.306499749624436" height="50.306499749624436" width="395.52" id="textblock"><g><svg viewBox="0 0 395.52 50.306499749624436" height="50.306499749624436" width="395.52"><g transform="matrix(1,0,0,1,0,0)"><svg width="395.52" viewBox="2.75 -37.5 299.53 38.1" height="50.306499749624436" data-palette-color="#1ebbd7"><g class="wordmark-text-0" data-fill-palette-color="primary" id="text-0"><path d="M17.7-35.05Q20.95-35.05 23.33-34.13 25.7-33.2 28.05-31.25L28.05-31.25 25.25-28.35Q23.4-29.85 21.7-30.5 20-31.15 17.7-31.15L17.7-31.15Q15.05-31.15 12.83-29.73 10.6-28.3 9.2-25.18 7.8-22.05 7.8-17.25L7.8-17.25Q7.8-10 10.18-6.65 12.55-3.3 17.2-3.3L17.2-3.3Q21-3.3 23.75-4.85L23.75-4.85 23.75-15.25 17.65-15.25 17.1-19.1 28.45-19.1 28.45-2.45Q23.1 0.6 17.2 0.6L17.2 0.6Q10.4 0.6 6.58-3.95 2.75-8.5 2.75-17.25L2.75-17.25Q2.75-22.85 4.78-26.88 6.8-30.9 10.23-32.98 13.65-35.05 17.7-35.05L17.7-35.05ZM47.75-26.95Q49.15-26.95 50.35-26.65L50.35-26.65 49.5-22.15Q48.3-22.45 47.2-22.45L47.2-22.45Q44.75-22.45 43.25-20.65 41.75-18.85 40.9-15.05L40.9-15.05 40.9 0 36.3 0 36.3-26.35 40.25-26.35 40.7-21Q41.75-23.95 43.55-25.45 45.35-26.95 47.75-26.95L47.75-26.95ZM73.34-6.15Q73.34-4.55 73.89-3.78 74.44-3 75.55-2.6L75.55-2.6 74.5 0.6Q72.44 0.35 71.19-0.55 69.94-1.45 69.34-3.35L69.34-3.35Q66.69 0.6 61.49 0.6L61.49 0.6Q57.59 0.6 55.34-1.6 53.09-3.8 53.09-7.35L53.09-7.35Q53.09-11.55 56.12-13.8 59.14-16.05 64.69-16.05L64.69-16.05 68.75-16.05 68.75-18Q68.75-20.8 67.39-22 66.05-23.2 63.24-23.2L63.24-23.2Q60.34-23.2 56.14-21.8L56.14-21.8 54.99-25.15Q59.89-26.95 64.09-26.95L64.09-26.95Q68.75-26.95 71.05-24.68 73.34-22.4 73.34-18.2L73.34-18.2 73.34-6.15ZM62.55-2.85Q66.5-2.85 68.75-6.95L68.75-6.95 68.75-13 65.3-13Q57.99-13 57.99-7.6L57.99-7.6Q57.99-5.25 59.14-4.05 60.3-2.85 62.55-2.85L62.55-2.85ZM109.24-26.95Q112.49-26.95 114.44-24.78 116.39-22.6 116.39-18.9L116.39-18.9 116.39 0 111.79 0 111.79-18.25Q111.79-23.35 108.09-23.35L108.09-23.35Q106.14-23.35 104.79-22.23 103.44-21.1 101.89-18.7L101.89-18.7 101.89 0 97.29 0 97.29-18.25Q97.29-23.35 93.59-23.35L93.59-23.35Q91.59-23.35 90.24-22.2 88.89-21.05 87.39-18.7L87.39-18.7 87.39 0 82.79 0 82.79-26.35 86.74-26.35 87.14-22.5Q90.09-26.95 94.74-26.95L94.74-26.95Q97.19-26.95 98.92-25.7 100.64-24.45 101.39-22.2L101.39-22.2Q102.94-24.5 104.82-25.73 106.69-26.95 109.24-26.95L109.24-26.95ZM143.39-6.15Q143.39-4.55 143.94-3.78 144.49-3 145.59-2.6L145.59-2.6 144.54 0.6Q142.49 0.35 141.24-0.55 139.99-1.45 139.39-3.35L139.39-3.35Q136.74 0.6 131.54 0.6L131.54 0.6Q127.64 0.6 125.39-1.6 123.14-3.8 123.14-7.35L123.14-7.35Q123.14-11.55 126.17-13.8 129.19-16.05 134.74-16.05L134.74-16.05 138.79-16.05 138.79-18Q138.79-20.8 137.44-22 136.09-23.2 133.29-23.2L133.29-23.2Q130.39-23.2 126.19-21.8L126.19-21.8 125.04-25.15Q129.94-26.95 134.14-26.95L134.14-26.95Q138.79-26.95 141.09-24.68 143.39-22.4 143.39-18.2L143.39-18.2 143.39-6.15ZM132.59-2.85Q136.54-2.85 138.79-6.95L138.79-6.95 138.79-13 135.34-13Q128.04-13 128.04-7.6L128.04-7.6Q128.04-5.25 129.19-4.05 130.34-2.85 132.59-2.85L132.59-2.85ZM165.24-13.7L151.09-13.7 151.09-17.6 165.24-17.6 165.24-13.7ZM185.29-35.05Q188.39-35.05 190.51-34.25 192.64-33.45 194.84-31.65L194.84-31.65 192.24-28.6Q189.09-31.15 185.59-31.15L185.59-31.15Q181.29-31.15 178.66-27.85 176.04-24.55 176.04-17.25L176.04-17.25Q176.04-10.15 178.64-6.78 181.24-3.4 185.54-3.4L185.54-3.4Q187.74-3.4 189.39-4.15 191.04-4.9 192.89-6.25L192.89-6.25 195.24-3.25Q193.64-1.6 191.14-0.5 188.64 0.6 185.39 0.6L185.39 0.6Q181.19 0.6 177.91-1.48 174.64-3.55 172.81-7.58 170.99-11.6 170.99-17.25L170.99-17.25Q170.99-22.9 172.89-26.93 174.79-30.95 178.04-33 181.29-35.05 185.29-35.05L185.29-35.05ZM213.38-26.95Q216.98-26.95 219.01-24.8 221.03-22.65 221.03-18.9L221.03-18.9 221.03 0 216.43 0 216.43-18.25Q216.43-21.05 215.36-22.2 214.28-23.35 212.23-23.35L212.23-23.35Q210.18-23.35 208.58-22.15 206.98-20.95 205.58-18.75L205.58-18.75 205.58 0 200.98 0 200.98-36.9 205.58-37.4 205.58-22.7Q208.68-26.95 213.38-26.95L213.38-26.95ZM250.18-13.95Q250.18-12.8 250.08-11.6L250.08-11.6 233.28-11.6Q233.58-7.25 235.48-5.2 237.38-3.15 240.38-3.15L240.38-3.15Q242.28-3.15 243.88-3.7 245.48-4.25 247.23-5.45L247.23-5.45 249.23-2.7Q245.03 0.6 240.03 0.6L240.03 0.6Q234.53 0.6 231.46-3 228.38-6.6 228.38-12.9L228.38-12.9Q228.38-17 229.71-20.18 231.03-23.35 233.51-25.15 235.98-26.95 239.33-26.95L239.33-26.95Q244.58-26.95 247.38-23.5 250.18-20.05 250.18-13.95L250.18-13.95ZM245.63-15L245.63-15.3Q245.63-19.2 244.08-21.25 242.53-23.3 239.43-23.3L239.43-23.3Q233.78-23.3 233.28-15L233.28-15 245.63-15ZM267.13-26.95Q269.48-26.95 271.43-26.28 273.38-25.6 275.18-24.1L275.18-24.1 272.98-21.2Q271.58-22.2 270.25-22.68 268.93-23.15 267.33-23.15L267.33-23.15Q264.13-23.15 262.35-20.6 260.58-18.05 260.58-13.05L260.58-13.05Q260.58-8.05 262.33-5.68 264.08-3.3 267.33-3.3L267.33-3.3Q268.88-3.3 270.18-3.78 271.48-4.25 273.08-5.3L273.08-5.3 275.18-2.3Q271.58 0.6 267.13 0.6L267.13 0.6Q261.78 0.6 258.7-3 255.63-6.6 255.63-12.95L255.63-12.95Q255.63-17.15 257.03-20.3 258.43-23.45 261-25.2 263.58-26.95 267.13-26.95L267.13-26.95ZM281.43-36.95L286.03-37.5 286.03 0 281.43 0 281.43-36.95ZM296.03-26.35L301.18-26.35 291.48-14.7 302.28 0 296.78 0 286.33-14.4 296.03-26.35Z" fill="#1ebbd7" data-fill-palette-color="primary"></path></g></svg></g></svg></g></svg></g></svg></g><g><svg viewBox="0 0 120.17246506139394 69.52358265398098" height="69.52358265398098" width="120.17246506139394"><g><svg xmlns="http://www.w3.org/2000/svg" xmlns:xlink="http://www.w3.org/1999/xlink" version="1.1" x="0" y="0" viewBox="1.9330000000000016 21.401000000000003 97.06468679999999 56.154999999999994" enable-background="new 0 0 100 100" xml:space="preserve" height="69.52358265398098" width="120.17246506139394" class="icon-icon-0" data-fill-palette-color="accent" id="icon-0"><g fill="#1ebbd7" data-fill-palette-color="accent"><g fill="#1ebbd7" data-fill-palette-color="accent"><path d="M80.021 60.602H7.533V27.001h72.489v9.333l5.601-5.6v-3.733c0 0 0-5.6-5.601-5.6-5.657 0-72.489 0-72.489 0s-5.6 0-5.6 5.6c0 5.483 0 33.601 0 33.601s0 5.599 5.6 5.599 72.489 0 72.489 0 5.601 0 5.601-5.599c0-5.718 0-11.2 0-11.2l-5.601 5.601V60.602z" fill="#1ebbd7" data-fill-palette-color="accent"></path><path d="M89.156 45.677v26.59H20.695l-0.009-3.525h-5.279v3.525c0 0 0 5.289 5.288 5.289 5.344 0 68.462 0 68.462 0s5.288 0 5.288-5.289c0-5.178 0-31.733 0-31.733S93.33 41.501 89.156 45.677z" fill="#1ebbd7" data-fill-palette-color="accent"></path><rect x="13.91" y="43.742" width="37.471" height="3.733" fill="#1ebbd7" data-fill-palette-color="accent"></rect><rect x="13.91" y="51.578" width="21.587" height="3.733" fill="#1ebbd7" data-fill-palette-color="accent"></rect><rect x="87.026" y="25.463" transform="matrix(-0.7072 -0.707 0.707 -0.7072 127.609 124.8935)" width="5.281" height="21.119" fill="#1ebbd7" data-fill-palette-color="accent"></rect><polygon points="82.2,47.224 78.466,43.49 76.6,45.356 76.6,49.09 80.332,49.09   " fill="#1ebbd7" data-fill-palette-color="accent"></polygon></g></g></svg></g></svg></g></svg></g><defs></defs></svg><rect width="395.52" height="50.549455904593316" fill="none" stroke="none" visibility="hidden"></rect></g></svg></g></svg>